# xmcd
#
# Track frame offsets: 
#        150
#        17100
#        34201
#        52429
#        89793
#        128317
#        172124
#
# Disc length: 4440 seconds
#
# Revision: 1
# Processed by: cddbd v1.5.2PL0 Copyright (c) Steve Scherf et al.
# Submitted via: ExactAudioCopy v1.0b3
#
DISCID=61115607
DTITLE=Ayla Pres. Yel - Sun Is Coming Out [CD 1)
DYEAR=2003
DGENRE=Trance
TTITLE0=Sun Is Coming Out (Intrance Single Mix)
TTITLE1=Sun Is Coming Out (Ayla's Uplifting Single Mix)
TTITLE2=Sun Is Coming Out (Trip Mix)
TTITLE3=Sun Is Coming Out (Intrance Remix)
TTITLE4=Sun Is Coming Out (Ayla's Uplifting Mix)
TTITLE5=Sun Is Coming Out (Vernon's World Remix)
TTITLE6=Data Track
EXTD=
EXTT0=
EXTT1=
EXTT2=
EXTT3=
EXTT4=
EXTT5=
EXTT6=
PLAYORDER=
